<?xml version="1.0" encoding="UTF-8"?>
<svg version="1.1" xmlns="http://www.w3.org/2000/svg" width="273" height="278">
<path d="M0 0 C0.71994141 0.21430664 1.43988281 0.42861328 2.18164062 0.64941406 C33.92777975 10.29114597 60.97002143 32.10010363 77.03515625 61.18066406 C93.66872612 92.54538133 97.46995014 128.12042633 87.53515625 162.26953125 C77.23772798 195.22265754 54.46757166 222.29170898 23.95629883 238.29174805 C16.20714269 242.20990282 8.33391163 245.51924876 0 248 C-0.63550781 248.19609863 -1.27101562 248.39219727 -1.92578125 248.59423828 C-33.95266888 258.10124886 -69.48483333 252.02021131 -98.62890625 236.90234375 C-109.32982603 230.86370188 -118.2124407 223.47054778 -127 215 C-128.07701172 214.01773438 -128.07701172 214.01773438 -129.17578125 213.015625 C-144.09139176 199.02663558 -154.85907891 178.62545419 -160 159 C-160.19319824 158.30487305 -160.38639648 157.60974609 -160.58544922 156.89355469 C-166.51527568 134.94593577 -166.07421153 110.85500295 -160 89 C-159.82871582 88.34612305 -159.65743164 87.69224609 -159.48095703 87.01855469 C-154.06023501 66.74161756 -142.26534001 49.10158408 -128 34 C-127.31421875 33.24976563 -126.6284375 32.49953125 -125.921875 31.7265625 C-95.24406436 -0.65557095 -42.39380441 -13.12569722 0 0 Z " fill="#55B0CB" transform="translate(172,15)"/>
<path d="M0 0 C5.97449383 3.49686047 10.48520202 7.69655303 14.3125 13.4375 C14.6425 8.8175 14.9725 4.1975 15.3125 -0.5625 C19.6025 -0.5625 23.8925 -0.5625 28.3125 -0.5625 C28.3125 25.8375 28.3125 52.2375 28.3125 79.4375 C24.0225 79.4375 19.7325 79.4375 15.3125 79.4375 C14.9825 74.8175 14.6525 70.1975 14.3125 65.4375 C12.9925 67.005 11.6725 68.5725 10.3125 70.1875 C6.3125759 74.62628724 2.91600829 77.4295762 -2.6875 79.4375 C-3.71875 79.85 -4.75 80.2625 -5.8125 80.6875 C-17.51241112 82.95199893 -26.65039365 81.43899185 -36.875 75.625 C-45.98596766 68.53869182 -52.42172265 59.5311526 -54.4375 47.8984375 C-55.89093443 33.59119234 -53.99748657 21.40525239 -44.9609375 9.8828125 C-33.56130463 -2.37864829 -15.55116375 -7.33434457 0 0 Z " fill="#FCFDFE" transform="translate(84.6875,107.5625)"/>
<path d="M0 0 C7.1803737 4.33531997 10.41413484 11.24240451 13 19 C13.83919591 29.60291762 12.53663895 38.86696728 5.6640625 47.24609375 C-0.62097122 53.87046028 -7.38842048 55.95652814 -16.375 56.4375 C-24.36176748 56.24944592 -30.46815043 52.98307083 -35.9375 47.25 C-42.83413027 38.46655578 -42.77996857 28.72182146 -42 18 C-40.87854703 10.88736135 -37.41318667 5.68938958 -32 1 C-21.67116214 -6.24954208 -11.01639793 -5.49103947 0 0 Z " fill="#55B0CB" transform="translate(87,121)"/>
<path d="M0 0 C-0.72008406 4.60853797 -2.31295939 8.67237409 -4 13 C-4.928125 12.67 -5.85625 12.34 -6.8125 12 C-13.30997304 10.19806922 -20.27957917 9.61412269 -26.375 12.875 C-31.90264967 16.83629309 -34.62671669 23.49614935 -36 30 C-36.11139496 31.64837468 -36.17552057 33.30028289 -36.20532227 34.95214844 C-36.22526749 35.93286316 -36.24521271 36.91357788 -36.26576233 37.92401123 C-36.29083107 39.5007663 -36.29083107 39.5007663 -36.31640625 41.109375 C-36.33718735 42.19132141 -36.35796844 43.27326782 -36.37937927 44.38800049 C-36.44472931 47.84193613 -36.50369229 51.29594737 -36.5625 54.75 C-36.60569904 57.09245571 -36.64931378 59.4349038 -36.69335938 61.77734375 C-36.80039587 67.51815182 -36.90170448 73.25903588 -37 79 C-41.29 79 -45.58 79 -50 79 C-50 52.6 -50 26.2 -50 -1 C-45.71 -1 -41.42 -1 -37 -1 C-36.67 2.63 -36.34 6.26 -36 10 C-35.43152344 9.31292969 -34.86304688 8.62585938 -34.27734375 7.91796875 C-24.56747943 -3.41290798 -13.85859144 -6.39627297 0 0 Z " fill="#FDFEFE" transform="translate(236,108)"/>
<path d="M0 0 C4.29 0 8.58 0 13 0 C13 26.4 13 52.8 13 80 C8.71 80 4.42 80 0 80 C0 53.6 0 27.2 0 0 Z " fill="#FFFFFF" transform="translate(143,107)"/>
<path d="M0 0 C3.9295493 0.92685276 5.41241975 2.29808529 8.00390625 5.47265625 C8.86038132 8.67286379 8.86038132 11.27244871 8.00390625 14.47265625 C5.41241975 17.64722721 3.9295493 19.01845974 0 19.9453125 C-3.73747357 20.22189973 -5.8727976 19.55228501 -8.99609375 17.53515625 C-11.32807388 13.96431168 -11.7387694 11.82759606 -11.47265625 7.6328125 C-10.15275916 1.65000026 -5.84909498 -0.43285523 0 0 Z " fill="#FCFDFD" transform="translate(150.99609375,63.52734375)"/>
<path d="M0 0 C0.33 0 0.66 0 1 0 C1 1.65 1 3.3 1 5 C0.67 5 0.34 5 0 5 C0 3.35 0 1.7 0 0 Z " fill="#50ADC7" transform="translate(272,114)"/>
</svg>
